<?xml version="1.0" encoding="iso-8859-1"?>
<!-- Generator: Adobe Illustrator 18.0.0, SVG Export Plug-In . SVG Version: 6.00 Build 0)  -->
<!DOCTYPE svg PUBLIC "-//W3C//DTD SVG 1.1//EN" "http://www.w3.org/Graphics/SVG/1.1/DTD/svg11.dtd">
<svg version="1.1" id="Capa_1" xmlns="http://www.w3.org/2000/svg" xmlns:xlink="http://www.w3.org/1999/xlink" x="0px" y="0px"
	 viewBox="0 0 297 297" style="enable-background:new 0 0 297 297;" xml:space="preserve">
<g>
	<g>
		<path d="M255.382,50.61l-18.643,8.347l28.593,168.811l18.519,0.466c5.65,0.142,10.049-4.867,9.178-10.451L268.034,57.482
			C267.114,51.58,260.834,48.169,255.382,50.61z"/>
		<path d="M223.329,64.96L22.193,155.009c-3.728,1.669-5.878,5.627-5.249,9.663l7.734,49.599c0.674,4.326,4.346,7.55,8.722,7.66
			l217.443,5.472L223.329,64.96z"/>
		<path d="M4.967,120.506c3.655,9.043,13.999,10.946,23.124,12.626c1.609,0.296,3.696,0.681,5.635,1.129l135.917-60.85
			c4.557-6.652,8.487-13.968,5.388-21.639c-3.656-9.043-13.999-10.946-23.124-12.626c-3.627-0.668-9.695-1.784-10.977-3.065
			c-1.436-1.46-2.477-7.553-3.165-11.586c-1.529-8.953-3.262-19.101-11.939-22.784c-8.679-3.678-17.18,2.121-24.682,7.244
			c-3.37,2.301-8.457,5.774-10.514,5.774c-0.005,0-0.011,0-0.016,0c-1.812-0.032-6.832-3.621-9.831-5.765
			C73.233,3.569,64.675-2.548,55.631,1.107c-9.043,3.655-10.946,13.999-12.626,23.125c-0.668,3.626-1.784,9.695-3.065,10.977
			c-1.459,1.435-7.552,2.476-11.583,3.164c-8.954,1.529-19.103,3.262-22.785,11.939c-3.682,8.678,2.122,17.181,7.244,24.682
			c2.306,3.379,5.792,8.484,5.773,10.53c-0.032,1.812-3.621,6.833-5.765,9.832C7.428,102.905,1.311,111.462,4.967,120.506z"/>
		<path d="M221.365,240.891l-20.631-0.519c0.014,0.115,0.018,0.229,0.036,0.345l3.413,21.89c0.576,3.692-0.546,7.387-3.077,10.137
			c-2.531,2.749-6.122,4.169-9.848,3.902l-79.98-5.777c-5.696-0.412-10.29-4.641-11.169-10.284l-3.561-22.836L75.9,237.23
			l4.13,26.486c2.347,15.047,14.594,26.323,29.783,27.421l79.98,5.777c0.799,0.059,1.594,0.086,2.386,0.086
			c9.072,0,17.668-3.75,23.876-10.493c6.75-7.332,9.741-17.185,8.206-27.032L221.365,240.891z"/>
	</g>
</g>
<g>
</g>
<g>
</g>
<g>
</g>
<g>
</g>
<g>
</g>
<g>
</g>
<g>
</g>
<g>
</g>
<g>
</g>
<g>
</g>
<g>
</g>
<g>
</g>
<g>
</g>
<g>
</g>
<g>
</g>
</svg>
